<svg version="1" xmlns="http://www.w3.org/2000/svg" width="533.333" height="533.333" viewBox="0 0 400.000000 400.000000"><path d="M172 4v4h56V0h-56v4zM152 8v4h16V4h-16v4zM232 8v4h16V4h-16v4zM140 12v4h8V8h-8v4zM252 12v4h8V8h-8v4zM128 16v4h8v-8h-8v4zM264 16v4h8v-8h-8v4zM116 18c0 1.3-.7 2-2 2-1.7 0-2 .7-2 4v4h4c3.3 0 4-.3 4-2 0-1.3.7-2 2-2 1.7 0 2-.7 2-4v-4h-4c-3.3 0-4 .3-4 2zM276 20c0 3.3.3 4 2 4 1.3 0 2 .7 2 2 0 1.7.7 2 4 2h4v-4c0-3.3-.3-4-2-4-1.3 0-2-.7-2-2 0-1.7-.7-2-4-2h-4v4zM100 26c0 1.3-.7 2-2 2-1.7 0-2 .7-2 4v4h4c3.3 0 4-.3 4-2 0-1.3.7-2 2-2 1.7 0 2-.7 2-4v-4h-4c-3.3 0-4 .3-4 2zM292 28c0 3.3.3 4 2 4 1.3 0 2 .7 2 2 0 1.7.7 2 4 2h4v-4c0-3.3-.3-4-2-4-1.3 0-2-.7-2-2 0-1.7-.7-2-4-2h-4v4zM80 38c0 1.3-.7 2-2 2s-2 .7-2 2-.7 2-2 2-2 .7-2 2-.7 2-2 2-2 .7-2 2-.7 2-2 2-2 .7-2 2-.7 2-2 2-2 .7-2 2-.7 2-2 2-2 .7-2 2-.7 2-2 2-2 .7-2 2-.7 2-2 2-2 .7-2 2-.7 2-2 2-2 .7-2 2-.7 2-2 2-2 .7-2 2-.7 2-2 2c-1.7 0-2 .7-2 4v4h4c3.3 0 4-.3 4-2 0-1.3.7-2 2-2s2-.7 2-2 .7-2 2-2 2-.7 2-2 .7-2 2-2 2-.7 2-2 .7-2 2-2 2-.7 2-2 .7-2 2-2 2-.7 2-2 .7-2 2-2 2-.7 2-2 .7-2 2-2 2-.7 2-2 .7-2 2-2 2-.7 2-2 .7-2 2-2 2-.7 2-2 .7-2 2-2 2-.7 2-2 .7-2 2-2c1.7 0 2-.7 2-4v-4h-4c-3.3 0-4 .3-4 2zM312 40c0 3.3.3 4 2 4 1.3 0 2 .7 2 2s.7 2 2 2 2 .7 2 2 .7 2 2 2 2 .7 2 2 .7 2 2 2 2 .7 2 2 .7 2 2 2 2 .7 2 2 .7 2 2 2 2 .7 2 2 .7 2 2 2 2 .7 2 2 .7 2 2 2 2 .7 2 2 .7 2 2 2 2 .7 2 2 .7 2 2 2 2 .7 2 2 .7 2 2 2 2 .7 2 2c0 1.7.7 2 4 2h4v-4c0-3.3-.3-4-2-4-1.3 0-2-.7-2-2s-.7-2-2-2-2-.7-2-2-.7-2-2-2-2-.7-2-2-.7-2-2-2-2-.7-2-2-.7-2-2-2-2-.7-2-2-.7-2-2-2-2-.7-2-2-.7-2-2-2-2-.7-2-2-.7-2-2-2-2-.7-2-2-.7-2-2-2-2-.7-2-2-.7-2-2-2-2-.7-2-2-.7-2-2-2-2-.7-2-2c0-1.7-.7-2-4-2h-4v4zM104 90c0 1.3-.7 2-2 2-1.9 0-2 .7-2 20s.1 20 2 20c1.3 0 2 .7 2 2s-.7 2-2 2c-1.9 0-2 .7-2 20s.1 20 2 20c1.3 0 2 .7 2 2s-.7 2-2 2c-1.9 0-2 .7-2 20s.1 20 2 20c1.3 0 2 .7 2 2 0 1.9.7 2 16 2s16-.1 16-2c0-1.3.7-2 2-2 1.9 0 2-.7 2-20s-.1-20-2-20c-1.3 0-2-.7-2-2s.7-2 2-2c1.9 0 2-.7 2-20s-.1-20-2-20c-1.3 0-2-.7-2-2s.7-2 2-2c1.9 0 2-.7 2-20s-.1-20-2-20c-1.3 0-2-.7-2-2 0-1.9-.7-2-16-2s-16 .1-16 2zm8 6c0 3.3.3 4 2 4s2 .7 2 4v4h8v-4c0-3.3.3-4 2-4s2-.7 2-4 .3-4 2-4c1.9 0 2 .7 2 20s-.1 20-2 20-2-.7-2-12-.1-12-2-12c-1.3 0-2 .7-2 2 0 1.7-.7 2-4 2s-4-.3-4-2c0-1.3-.7-2-2-2-1.9 0-2 .7-2 12s-.1 12-2 12-2-.7-2-20 .1-20 2-20c1.7 0 2 .7 2 4zm12 42c0 1.3.7 2 2 2s2 .7 2 2 .7 2 2 2c1.9 0 2 .7 2 12s-.1 12-2 12c-1.3 0-2 .7-2 2s-.7 2-2 2-2 .7-2 2c0 1.8-.7 2-8 2h-8v-40h8c7.3 0 8 .2 8 2zm0 44c0 1.3.7 2 2 2 1.7 0 2 .7 2 4s.3 4 2 4c1.9 0 2 .7 2 14s-.1 14-2 14c-1.8 0-2-.7-2-6v-6h-16v6c0 5.3-.2 6-2 6-1.9 0-2-.7-2-14s.1-14 2-14c1.7 0 2-.7 2-4s.3-4 2-4c1.3 0 2-.7 2-2 0-1.7.7-2 4-2s4 .3 4 2z"/><path d="M112 156v16h6c5.3 0 6-.2 6-2 0-1.3.7-2 2-2 1.9 0 2-.7 2-12s-.1-12-2-12c-1.3 0-2-.7-2-2 0-1.8-.7-2-6-2h-6v16zM116 188c0 3.3-.3 4-2 4-1.8 0-2 .7-2 6v6h16v-6c0-5.3-.2-6-2-6-1.7 0-2-.7-2-4v-4h-8v4zM144 92v4h8v24h-8v8h24v-8h-8V96h8v-8h-24v4zM172 108v20h24v-8h-16V88h-8v20zM200 108v20h24v-8h-16V88h-8v20zM228 92v4h8v24h-8v8h24v-8h-8V96h8v-8h-24v4zM256 108v20h24V88h-24v20zm16 0v12h-8V96h8v12zM284 108v20h8v-16h8v8h8v8h8V88h-8v24h-8v-8h-8V88h-8v20zM28 98c0 1.3-.7 2-2 2-1.7 0-2 .7-2 4v4h4c3.3 0 4-.3 4-2 0-1.3.7-2 2-2 1.7 0 2-.7 2-4v-4h-4c-3.3 0-4 .3-4 2zM364 100c0 3.3.3 4 2 4 1.3 0 2 .7 2 2 0 1.7.7 2 4 2h4v-4c0-3.3-.3-4-2-4-1.3 0-2-.7-2-2 0-1.7-.7-2-4-2h-4v4zM20 114c0 1.3-.7 2-2 2-1.7 0-2 .7-2 4v4h4c3.3 0 4-.3 4-2 0-1.3.7-2 2-2 1.7 0 2-.7 2-4v-4h-4c-3.3 0-4 .3-4 2zM372 116c0 3.3.3 4 2 4 1.3 0 2 .7 2 2 0 1.7.7 2 4 2h4v-4c0-3.3-.3-4-2-4-1.3 0-2-.7-2-2 0-1.7-.7-2-4-2h-4v4zM12 132v4h8v-8h-8v4zM380 132v4h8v-8h-8v4zM144 152v20h24v-40h-24v20zm16 0v12h-8v-24h8v12zM172 152v20h24v-8h-16v-32h-8v20zM200 152v20h24v-8h-16v-32h-8v20zM236 136v4h-8v32h8v-16h8v16h8v-32h-8v-8h-8v4zm8 8v4h-8v-8h8v4zM256 152v20h8v-16h8v16h8v-16h-8v-8h8v-16h-24v20zm16-8v4h-8v-8h8v4zM8 144v4h8v-8H8v4zM384 144v4h8v-8h-8v4zM4 160v8h8v-16H4v8zM388 160v8h8v-16h-8v8zM0 200v28h8v-56H0v28zM392 200v28h8v-56h-8v28zM104 230c0 1.3-.7 2-2 2-1.9 0-2 .7-2 20s.1 20 2 20c1.3 0 2 .7 2 2 0 1.9.7 2 16 2s16-.1 16-2c0-1.3.7-2 2-2 1.9 0 2-.7 2-20s-.1-20-2-20c-1.3 0-2-.7-2-2 0-1.9-.7-2-16-2s-16 .1-16 2zm20 4c0 1.3.7 2 2 2 1.8 0 2 .7 2 8s-.2 8-2 8c-1.3 0-2 .7-2 2 0 1.8-.7 2-6 2h-6v8c0 7.3-.2 8-2 8-1.9 0-2-.7-2-18s.1-18 2-18c1.3 0 2-.7 2-2 0-1.8.7-2 6-2s6 .2 6 2z"/><path d="M112 244v8h12v-16h-12v8zM4 240v8h8v-16H4v8zM388 240v8h8v-16h-8v8zM8 256v4h8v-8H8v4zM384 256v4h8v-8h-8v4zM12 268v4h8v-8h-8v4zM380 268v4h8v-8h-8v4zM16 280c0 3.3.3 4 2 4 1.3 0 2 .7 2 2 0 1.7.7 2 4 2h4v-4c0-3.3-.3-4-2-4-1.3 0-2-.7-2-2 0-1.7-.7-2-4-2h-4v4zM376 278c0 1.3-.7 2-2 2-1.7 0-2 .7-2 4v4h4c3.3 0 4-.3 4-2 0-1.3.7-2 2-2 1.7 0 2-.7 2-4v-4h-4c-3.3 0-4 .3-4 2zM104 282c0 1.3-.7 2-2 2-1.9 0-2 .7-2 20s.1 20 2 20c1.3 0 2 .7 2 2 0 1.9.7 2 16 2s16-.1 16-2c0-1.3.7-2 2-2 1.9 0 2-.7 2-20s-.1-20-2-20c-1.3 0-2-.7-2-2 0-1.9-.7-2-16-2s-16 .1-16 2zm20 4c0 1.3.7 2 2 2 1.8 0 2 .7 2 8s-.2 8-2 8c-1.3 0-2 .7-2 2 0 1.8-.7 2-6 2h-6v8c0 7.3-.2 8-2 8-1.9 0-2-.7-2-18s.1-18 2-18c1.3 0 2-.7 2-2 0-1.8.7-2 6-2s6 .2 6 2z"/><path d="M112 296v8h12v-16h-12v8zM24 296c0 3.3.3 4 2 4 1.3 0 2 .7 2 2 0 1.7.7 2 4 2h4v-4c0-3.3-.3-4-2-4-1.3 0-2-.7-2-2 0-1.7-.7-2-4-2h-4v4zM368 294c0 1.3-.7 2-2 2-1.7 0-2 .7-2 4v4h4c3.3 0 4-.3 4-2 0-1.3.7-2 2-2 1.7 0 2-.7 2-4v-4h-4c-3.3 0-4 .3-4 2zM36 316c0 3.3.3 4 2 4 1.3 0 2 .7 2 2s.7 2 2 2 2 .7 2 2 .7 2 2 2 2 .7 2 2 .7 2 2 2 2 .7 2 2 .7 2 2 2 2 .7 2 2 .7 2 2 2 2 .7 2 2 .7 2 2 2 2 .7 2 2 .7 2 2 2 2 .7 2 2 .7 2 2 2 2 .7 2 2 .7 2 2 2 2 .7 2 2 .7 2 2 2 2 .7 2 2c0 1.7.7 2 4 2h4v-4c0-3.3-.3-4-2-4-1.3 0-2-.7-2-2s-.7-2-2-2-2-.7-2-2-.7-2-2-2-2-.7-2-2-.7-2-2-2-2-.7-2-2-.7-2-2-2-2-.7-2-2-.7-2-2-2-2-.7-2-2-.7-2-2-2-2-.7-2-2-.7-2-2-2-2-.7-2-2-.7-2-2-2-2-.7-2-2-.7-2-2-2-2-.7-2-2-.7-2-2-2-2-.7-2-2c0-1.7-.7-2-4-2h-4v4zM356 314c0 1.3-.7 2-2 2s-2 .7-2 2-.7 2-2 2-2 .7-2 2-.7 2-2 2-2 .7-2 2-.7 2-2 2-2 .7-2 2-.7 2-2 2-2 .7-2 2-.7 2-2 2-2 .7-2 2-.7 2-2 2-2 .7-2 2-.7 2-2 2-2 .7-2 2-.7 2-2 2-2 .7-2 2-.7 2-2 2-2 .7-2 2-.7 2-2 2c-1.7 0-2 .7-2 4v4h4c3.3 0 4-.3 4-2 0-1.3.7-2 2-2s2-.7 2-2 .7-2 2-2 2-.7 2-2 .7-2 2-2 2-.7 2-2 .7-2 2-2 2-.7 2-2 .7-2 2-2 2-.7 2-2 .7-2 2-2 2-.7 2-2 .7-2 2-2 2-.7 2-2 .7-2 2-2 2-.7 2-2 .7-2 2-2 2-.7 2-2 .7-2 2-2 2-.7 2-2 .7-2 2-2c1.7 0 2-.7 2-4v-4h-4c-3.3 0-4 .3-4 2zM96 368c0 3.3.3 4 2 4 1.3 0 2 .7 2 2 0 1.7.7 2 4 2h4v-4c0-3.3-.3-4-2-4-1.3 0-2-.7-2-2 0-1.7-.7-2-4-2h-4v4zM296 366c0 1.3-.7 2-2 2-1.7 0-2 .7-2 4v4h4c3.3 0 4-.3 4-2 0-1.3.7-2 2-2 1.7 0 2-.7 2-4v-4h-4c-3.3 0-4 .3-4 2zM112 376c0 3.3.3 4 2 4 1.3 0 2 .7 2 2 0 1.7.7 2 4 2h4v-4c0-3.3-.3-4-2-4-1.3 0-2-.7-2-2 0-1.7-.7-2-4-2h-4v4zM280 374c0 1.3-.7 2-2 2-1.7 0-2 .7-2 4v4h4c3.3 0 4-.3 4-2 0-1.3.7-2 2-2 1.7 0 2-.7 2-4v-4h-4c-3.3 0-4 .3-4 2zM128 384v4h8v-8h-8v4zM264 384v4h8v-8h-8v4zM140 388v4h8v-8h-8v4zM252 388v4h8v-8h-8v4zM152 392v4h16v-8h-16v4zM232 392v4h16v-8h-16v4zM172 396v4h56v-8h-56v4z"/></svg>